#!OML:ASF F:\VICON\USERDATA\INSTALL\rory3\rory3.ASF
:FULLY-SPECIFIED
:DEGREES
193
root 1.77396 16.936 2.09455 -124.384 -43.8563 147.184
lowerback 8.11912 -3.53624 -5.84747
upperback -4.32541 -5.74474 -1.96348
thorax -8.80538 -2.57087 2.06533
lowerneck -12.9144 -0.604052 -5.03551
upperneck 44.5214 -8.36749 7.16179
head 20.2583 -4.47127 2.3951
rclavicle -8.5875e-014 -6.52014e-014
rhumerus -42.9392 -52.9192 -15.1387
rradius 15.3031
rwrist 28.691
rhand -17.793 16.7724
rfingers 7.12502
rthumb 8.47012 -13.0377
lclavicle -8.5875e-014 -6.52014e-014
lhumerus -33.8443 13.295 17.3837
lradius 15.6303
lwrist -57.8208
lhand 1.46062 27.0401
lfingers 7.12502
lthumb 26.9886 55.1323
rfemur -49.1341 1.83338 7.1018
rtibia 39.2017
rfoot -62.1951 -33.1557
rtoes 46.9554
lfemur -37.5346 -0.719369 -18.2173
ltibia 36.2959
lfoot -22.2928 27.5489
ltoes 35.6109
194
root 1.73712 16.909 2.08453 -126.544 -44.1029 149.638
lowerback 8.1693 -3.26458 -4.4253
upperback -4.41756 -5.17948 -1.74518
thorax -9.06625 -2.35509 1.43869
lowerneck -13.0067 -0.679898 -4.88862
upperneck 44.6138 -8.56796 7.07409
head 20.3621 -4.54659 2.27665
rclavicle 1.11319e-013 8.11041e-014
rhumerus -46.3536 -53.6147 -10.4439
rradius 15.0265
rwrist 28.7223
rhand -17.6999 16.4705
rfingers 7.12502
rthumb 8.55991 -13.336
lclavicle 1.11319e-013 8.11041e-014
lhumerus -34.9399 14.2328 15.2665
lradius 15.492
lwrist -57.7791
lhand 0.67125 27.4709
lfingers 7.12502
lthumb 26.2332 55.6777
rfemur -48.977 1.23555 9.5726
rtibia 39.3322
rfoot -60.0968 -32.9971
rtoes 45.2503
lfemur -39.1201 -0.936238 -18.0289
ltibia 37.1337
lfoot -22.574 26.1099
ltoes 33.9396
195
root 1.70017 16.8718 2.05202 -128.577 -43.8406 151.88
lowerback 8.09865 -2.84396 -3.68812
upperback -4.42193 -4.4975 -1.60739
thorax -9.10217 -2.05747 1.06962
lowerneck -13.1228 -0.904253 -4.89572
upperneck 44.5106 -8.87702 7.02961
head 20.3599 -4.66845 2.18422
rclavicle -4.13472e-014 -2.38542e-014
rhumerus -49.7709 -53.8993 -5.91166
rradius 15.0839
rwrist 28.0962
rhand -17.8086 16.2634
rfingers 7.12502
rthumb 8.45506 -13.5473
lclavicle -4.13472e-014 -2.38542e-014
lhumerus -35.8589 15.5186 13.0674
lradius 15.4133
lwrist -57.9947
lhand 1.64198 27.3986
lfingers 7.12502
lthumb 27.1621 55.4638
rfemur -48.7717 1.40181 11.3352
rtibia 39.6262
rfoot -58.7214 -32.6555
rtoes 44.3202
lfemur -40.644 -0.489537 -18.4914
ltibia 37.8157
lfoot -22.0704 25.2859
ltoes 30.3833
196
root 1.67229 16.824 2.00093 -130.413 -42.8901 153.698
lowerback 7.86859 -2.36891 -4.0941
upperback -4.17827 -3.86067 -1.46467
thorax -8.68943 -1.72676 1.33071
lowerneck -13.5921 -1.10365 -4.91258
upperneck 44.377 -8.96972 6.82183
head 20.3986 -4.70143 2.05179
rclavicle -3.97569e-015 -9.54166e-015
rhumerus -53.4205 -55.0717 -0.691054
rradius 15.1519
rwrist 28.1878
rhand -17.9352 16.2102
rfingers 7.12502
rthumb 8.33286 -13.6055
lclavicle -3.97569e-015 -9.54166e-015
lhumerus -37.0108 17.9213 10.4256
lradius 15.3425
lwrist -58.8882
lhand 2.60302 27.3226
lfingers 7.12502
lthumb 28.0812 55.2406
rfemur -48.5105 2.26912 12.1842
rtibia 40.011
rfoot -58.0569 -32.3749
rtoes 44.0061
lfemur -41.9714 -0.131254 -19.4778
ltibia 38.3196
lfoot -21.4878 25.2959
ltoes 24.5407
197
root 1.64393 16.7768 1.93966 -131.761 -41.7382 155.205
lowerback 7.56318 -1.99038 -4.77167
upperback -4.23805 -3.41139 -1.37956
thorax -8.55717 -1.47067 1.71979
lowerneck -13.6989 -1.08746 -4.82167
upperneck 44.4656 -9.03555 6.79841
head 20.4951 -4.72783 2.00242
rclavicle -1.90833e-014 -3.33958e-014
rhumerus -56.7546 -55.7265 4.16208
rradius 15.3132
rwrist 28.0169
rhand -17.9185 15.4858
rfingers 7.12502
rthumb 8.34897 -14.3292
lclavicle -1.90833e-014 -3.33958e-014
lhumerus -38.4998 19.3446 7.70846
lradius 15.4184
lwrist -59.3822
lhand 3.14791 27.6349
lfingers 7.12502
lthumb 28.6019 55.4664
rfemur -48.5622 2.58137 12.9637
rtibia 40.4375
rfoot -56.8764 -32.0899
rtoes 43.6222
lfemur -43.5 -0.294316 -20.3667
ltibia 38.7442
lfoot -22.938 24.1407
ltoes 22.5476
198
root 1.61014 16.7434 1.9003 -133.237 -40.9394 156.899
lowerback 7.86659 -1.63423 -4.40334
upperback -4.69086 -2.94748 -1.43626
thorax -9.27896 -1.24894 1.40932
lowerneck -13.0226 -1.06619 -4.79655
upperneck 44.3338 -9.28656 7.13082
head 20.2617 -4.83602 2.11536
rclavicle 2.06736e-014 6.67916e-014
rhumerus -57.9538 -54.0019 5.86754
rradius 15.9725
rwrist 25.2002
rhand -17.9352 14.2831
rfingers 7.12502
rthumb 8.33291 -15.5326
lclavicle 2.06736e-014 6.67916e-014
lhumerus -39.4986 18.7359 5.91995
lradius 15.8999
lwrist -57.4972
lhand 4.07342 28.0749
lfingers 7.12502
lthumb 29.4858 55.7541
rfemur -48.4387 3.38183 13.7954
rtibia 40.7518
rfoot -56.3295 -31.9252
rtoes 43.2393
lfemur -45.0984 -0.647622 -20.7688
ltibia 39.1456
lfoot -25.1911 21.8684
ltoes 24.2202
199
root 1.57145 16.7125 1.88481 -135.139 -40.4818 158.923
lowerback 7.96837 -1.40733 -3.63094
upperback -4.54684 -2.50082 -1.11269
thorax -9.21498 -1.06232 1.25353
lowerneck -13.5421 -1.05379 -4.77962
upperneck 44.4938 -9.03134 6.66456
head 20.4493 -4.77419 1.919
rclavicle 1.74931e-014 -1.74931e-014
rhumerus -57.7376 -53.0426 6.39836
rradius 16.8016
rwrist 21.7677
rhand -18.1793 12.6464
rfingers 7.12502
rthumb 8.09732 -17.1785
lclavicle 1.74931e-014 -1.74931e-014
lhumerus -41.0619 20.4777 3.38538
lradius 16.0834
lwrist -57.1816
lhand 4.49524 28.2061
lfingers 7.12502
lthumb 29.8884 55.8136
rfemur -47.9638 2.6729 15.7857
rtibia 40.8985
rfoot -54.1005 -31.351
rtoes 41.902
lfemur -46.7163 -0.494548 -20.9293
ltibia 39.6226
lfoot -25.0929 21.2176
ltoes 20.9936
